HIERARCHY
ROOT Hips
{
	OFFSET 0.00000 0.00000 0.00000
	CHANNELS 6 Xposition Yposition Zposition Zrotation Yrotation Xrotation 
	JOINT LHipJoint
	{
		OFFSET 0 0 0
		CHANNELS 3 Zrotation Yrotation Xrotation
		JOINT LeftHip
		{
			OFFSET 1.37733 -1.58235 0.71371
			CHANNELS 3 Zrotation Yrotation Xrotation
			JOINT LeftKnee
			{
				OFFSET 2.33951 -6.42775 0.00000
				CHANNELS 3 Zrotation Yrotation Xrotation
				JOINT LeftAnkle
				{
					OFFSET 2.30523 -6.33358 0.00000
					CHANNELS 3 Zrotation Yrotation Xrotation
					JOINT LeftToe
					{
						OFFSET 0.05388 -0.14857 1.53863
						CHANNELS 3 Zrotation Yrotation Xrotation
						End Site
						{
							OFFSET 0.00000 -0.00000 0.79208
						}
					}
				}
			}
		}
	}
	JOINT RHipJoint
	{
		OFFSET 0 0 0
		CHANNELS 3 Zrotation Yrotation Xrotation
		JOINT RightHip
		{
			OFFSET -1.47839 -1.58235 0.71371
			CHANNELS 3 Zrotation Yrotation Xrotation
			JOINT RightKnee
			{
				OFFSET -2.26534 -6.22397 0.00000
				CHANNELS 3 Zrotation Yrotation Xrotation
				JOINT RightAnkle
				{
					OFFSET -2.27037 -6.23779 0.00000
					CHANNELS 3 Zrotation Yrotation Xrotation
					JOINT RightToe
					{
						OFFSET -0.09543 -0.26220 1.62615
						CHANNELS 3 Zrotation Yrotation Xrotation
						End Site
						{
							OFFSET -0.00000 -0.00000 0.83991
						}
					}
				}
			}
		}
	}
	JOINT lowerback
	{
		OFFSET 0 0 0
		CHANNELS 3 Zrotation Yrotation Xrotation
		JOINT Chest
		{
			OFFSET 0.00101 1.81877 -0.00412
			CHANNELS 3 Zrotation Yrotation Xrotation
			JOINT Chest2
			{
				OFFSET 0.00322 1.81934 -0.03962
				CHANNELS 3 Zrotation Yrotation Xrotation
				JOINT lowerneck
				{
					OFFSET 0 0 0
					CHANNELS 3 Zrotation Yrotation Xrotation
					JOINT Neck
					{
						OFFSET -0.13795 1.66192 0.22650
						CHANNELS 3 Zrotation Yrotation Xrotation
						JOINT Head
						{
							OFFSET 0.14844 1.65995 -0.39123
							CHANNELS 3 Zrotation Yrotation Xrotation
							End Site
							{
								OFFSET 0.04109 1.72502 -0.16783
							}
						}
					}
				}
				JOINT LeftCollar
				{
					OFFSET 0 0 0
					CHANNELS 3 Zrotation Yrotation Xrotation
					JOINT LeftShoulder
					{
						OFFSET 3.25446 1.41983 0.32106
CHANNELS 3 Zrotation Xrotation Yrotation
						JOINT LeftElbow
						{
OFFSET 0 -4.054440 -0.000000
CHANNELS 3 Zrotation Xrotation Yrotation
							JOINT LeftWrist
							{
OFFSET 0 -3.212050 0.000000
CHANNELS 3 Zrotation Xrotation Yrotation
								JOINT lhand
								{
									OFFSET 0 0 0
CHANNELS 3 Zrotation Xrotation Yrotation
									JOINT LFingers
									{
OFFSET 0 -0.707410 0.000000
CHANNELS 3 Zrotation Xrotation Yrotation
										End Site
										{
OFFSET 0 -0.570330 0.000000
										}
									}
								}
								JOINT LThumb
								{
OFFSET 0 0.000000 0.000000
CHANNELS 3 Zrotation Xrotation Yrotation
									End Site
									{
OFFSET 0 -0.579040 0.579040
									}
								}
							}
						}
					}
				}
				JOINT RightCollar
				{
					OFFSET 0 0 0
					CHANNELS 3 Zrotation Yrotation Xrotation
					JOINT RightShoulder
					{
						OFFSET -3.30007 1.25485 0.33947
CHANNELS 3 Zrotation Xrotation Yrotation
						JOINT RightElbow
						{
OFFSET 0 -3.740480 -0.000000
CHANNELS 3 Zrotation Xrotation Yrotation
							JOINT RightWrist
							{
OFFSET 0 -3.160300 0.000000
CHANNELS 3 Zrotation Xrotation Yrotation
								JOINT rhand
								{
									OFFSET 0 0 0
CHANNELS 3 Zrotation Xrotation Yrotation
									JOINT RFingers
									{
OFFSET 0 -0.717030 0.000000
CHANNELS 3 Zrotation Xrotation Yrotation
										End Site
										{
OFFSET 0 -0.578090 0.000000
										}
									}
								}
								JOINT RThumb
								{
OFFSET 0 0.000000 0.000000
CHANNELS 3 Zrotation Xrotation Yrotation
									End Site
									{
OFFSET 0 -0.586910 0.586910
									}
								}
							}
						}
					}
				}
			}
		}
	}
}
MOTION
Frames: 8
Frame Time: 0.008333333333333333
21.961934 12.399427 1.015031 168.460766 85.374768 181.418611 0.000000 0.000000 0.000000 -7.143870 -21.808813 -73.419770 18.602355 19.951072 85.910059 -0.157405 8.474076 -8.157926 5.100023 -13.495273 -41.252464 0.000000 0.000000 0.000000 8.782411 19.014182 -72.109407 -18.909507 -19.968802 86.809771 0.940832 18.070955 -0.151853 -0.890584 5.969528 -16.709116 -0.294463 -0.511376 14.508474 1.519132 -0.224679 7.831847 1.782841 0.037638 0.136231 -5.578965 -1.248328 -15.710841 0.782975 -0.516839 0.343328 1.219927 -0.189739 2.906127 0.000000 0.000000 0.000000 6.648404 -36.888597 110.982737 5.636095 -9.610160 0.535687 -41.775721 78.774214 44.866657 0.000000 0.000000 0.000000 -7.125000 0.000000 0.000000 -35.446326 -15.941098 -52.174761 0.000000 0.000000 0.000000 2.742062 -19.378852 16.794987 -11.055571 -18.315909 -1.840380 -10.909483 21.220410 -68.945469 0.000000 0.000000 0.000000 7.125000 0.000000 0.000000 17.969325 -38.502174 26.030533
21.905458 12.341468 1.012832 171.173250 85.167373 182.250387 0.000000 0.000000 0.000000 -7.643862 -21.879259 -71.817042 18.816131 19.966172 86.536709 -0.140734 8.314791 -8.375813 5.062465 -13.453700 -41.091674 0.000000 0.000000 0.000000 9.465952 18.846500 -70.562124 -19.158324 -19.982776 87.538479 0.933527 17.743401 0.519115 -1.037725 6.477815 -18.177608 -0.150417 -0.517586 14.698819 1.458555 -0.224785 7.629632 1.638842 0.041922 -0.180134 -5.187844 -1.167475 -15.983852 0.270027 -0.428096 0.342719 0.985050 -0.161177 2.943576 0.000000 0.000000 0.000000 2.378083 -41.354936 82.870157 4.456683 -7.652374 0.316207 -37.311673 43.737291 37.516689 0.000000 0.000000 0.000000 -7.125000 0.000000 0.000000 -34.597241 -8.728396 -48.616478 0.000000 0.000000 0.000000 3.832939 -25.641846 13.822401 -12.549851 -20.609418 -2.301721 -27.528210 11.810764 -63.505529 0.000000 0.000000 0.000000 7.125000 0.000000 0.000000 12.293253 -35.109257 17.331426
21.837764 12.285080 1.008453 172.783417 84.976421 182.235312 0.000000 0.000000 0.000000 -8.181003 -21.848032 -70.443303 18.967851 19.973386 86.980815 -0.124223 8.173551 -8.604022 5.041575 -13.430334 -41.001690 0.000000 0.000000 0.000000 9.992720 18.500634 -69.331240 -19.344574 -19.988160 88.083266 0.912278 17.415302 0.951125 -1.113675 6.696691 -18.822679 -0.100094 -0.487544 14.853231 1.431025 -0.199409 7.257886 1.578469 0.049603 -0.655324 -5.308840 -1.286891 -16.232053 0.225412 -0.533694 0.088631 0.983650 -0.204895 2.905027 0.000000 0.000000 0.000000 -1.395795 -44.768159 54.663629 6.527072 -11.046323 0.749079 -31.036221 8.421118 30.849715 0.000000 0.000000 0.000000 -7.125000 0.000000 0.000000 -32.842102 -1.485659 -40.958529 0.000000 0.000000 0.000000 5.291565 -31.127576 14.700168 -14.242285 -22.982996 -2.982434 -26.657083 16.116041 -57.195081 0.000000 0.000000 0.000000 7.125000 0.000000 0.000000 10.278355 -29.158028 14.157143
21.770069 12.228691 1.004074 174.393584 84.785469 182.220237 0.000000 0.000000 0.000000 -8.718144 -21.816805 -69.069564 19.119571 19.980601 87.424921 -0.107712 8.032312 -8.832230 5.020686 -13.406967 -40.911706 0.000000 0.000000 0.000000 10.519488 18.154767 -68.100356 -19.530824 -19.993544 88.628052 0.891029 17.087202 1.383135 -1.189625 6.915568 -19.467751 -0.049772 -0.457501 15.007643 1.403495 -0.174032 6.886141 1.518097 0.057284 -1.130513 -5.429835 -1.406308 -16.480254 0.180797 -0.639292 -0.165457 0.982251 -0.248613 2.866478 0.000000 0.000000 0.000000 -5.169673 -48.181383 26.457101 8.597461 -14.440272 1.181950 -24.760769 -26.895055 24.182741 0.000000 0.000000 0.000000 -7.125000 0.000000 0.000000 -31.086962 5.757077 -33.300581 0.000000 0.000000 0.000000 6.750191 -36.613306 15.577935 -15.934719 -25.356575 -3.663148 -25.785956 20.421317 -50.884634 0.000000 0.000000 0.000000 7.125000 0.000000 0.000000 8.263456 -23.206799 10.982860
21.701246 12.174077 0.999614 176.141636 84.629571 182.448102 0.000000 0.000000 0.000000 -9.185870 -21.723202 -67.825382 19.265256 19.986710 87.851253 -0.090879 7.868460 -9.025179 5.005936 -13.390466 -40.848192 0.000000 0.000000 0.000000 11.042270 17.796783 -66.956695 -19.688828 -19.997511 89.090177 0.868295 16.763331 1.763516 -1.253503 7.097145 -20.003863 0.002024 -0.413059 15.103884 1.382277 -0.131204 6.492014 1.460386 0.072291 -1.598457 -5.593326 -1.532682 -16.709207 0.197464 -0.747274 -0.509164 1.008186 -0.287412 2.794477 0.000000 0.000000 0.000000 -8.936122 -51.448152 4.203625 10.467992 -17.440990 1.633298 -18.584429 -54.288853 18.877301 0.000000 0.000000 0.000000 -7.125000 0.000000 0.000000 -28.894347 11.461136 -26.581160 0.000000 0.000000 0.000000 8.213793 -41.827161 17.913134 -17.209248 -27.130533 -4.183560 -25.185196 24.317673 -44.604816 0.000000 0.000000 0.000000 7.125000 0.000000 0.000000 6.481453 -17.158879 8.203052
21.630034 12.123217 0.994984 178.181444 84.547842 183.190013 0.000000 0.000000 0.000000 -9.506719 -21.497613 -66.855334 19.398168 19.990478 88.239976 -0.073363 7.656762 -9.143519 5.004177 -13.388492 -40.840691 0.000000 0.000000 0.000000 11.556619 17.413157 -65.997594 -19.787068 -19.998480 89.377394 0.842416 16.448404 2.034653 -1.291836 7.199799 -20.309421 0.056941 -0.338150 15.077036 1.374417 -0.051450 6.050528 1.408305 0.102801 -2.051070 -5.846731 -1.673778 -16.897430 0.343800 -0.860302 -1.042500 1.091960 -0.315803 2.651694 0.000000 0.000000 0.000000 -12.686849 -54.405030 -5.453536 11.915635 -19.609654 2.123742 -12.617802 -64.919364 16.452790 0.000000 0.000000 0.000000 -7.125000 0.000000 0.000000 -25.776057 13.909444 -21.847606 0.000000 0.000000 0.000000 9.687925 -46.465741 23.332175 -17.599515 -27.635729 -4.364785 -25.156518 27.348778 -38.389809 0.000000 0.000000 0.000000 7.125000 0.000000 0.000000 5.192243 -10.906363 6.257930
21.558822 12.072356 0.990354 180.221252 84.466113 183.931925 0.000000 0.000000 0.000000 -9.827568 -21.272025 -65.885285 19.531080 19.994247 88.628699 -0.055847 7.445064 -9.261858 5.002418 -13.386518 -40.833189 0.000000 0.000000 0.000000 12.070968 17.029531 -65.038493 -19.885307 -19.999449 89.664611 0.816537 16.133477 2.305790 -1.330170 7.302454 -20.614980 0.111857 -0.263241 15.050187 1.366556 0.028305 5.609042 1.356224 0.133310 -2.503682 -6.100137 -1.814874 -17.085654 0.490137 -0.973329 -1.575837 1.175735 -0.344195 2.508911 0.000000 0.000000 0.000000 -16.437576 -57.361908 -15.110697 13.363278 -21.778319 2.614186 -6.651175 -75.549876 14.028279 0.000000 0.000000 0.000000 -7.125000 0.000000 0.000000 -22.657767 16.357752 -17.114053 0.000000 0.000000 0.000000 11.162057 -51.104321 28.751216 -17.989781 -28.140925 -4.546010 -25.127839 30.379884 -32.174801 0.000000 0.000000 0.000000 7.125000 0.000000 0.000000 3.903033 -4.653847 4.312808
21.491584 12.031037 0.986357 182.909399 84.431287 185.442551 0.000000 0.000000 0.000000 -10.000011 -20.957470 -65.069748 19.655545 19.996730 88.992674 -0.040443 7.191302 -9.269882 5.010854 -13.395986 -40.869614 0.000000 0.000000 0.000000 12.638056 16.651549 -64.111032 -19.934437 -19.999900 89.808241 0.787989 15.817841 2.433359 -1.337767 7.323130 -20.676389 0.197012 -0.183878 14.927116 1.369639 0.119982 5.188541 1.296079 0.169425 -2.882054 -6.326127 -1.931204 -17.140217 0.679900 -1.065161 -2.256715 1.269147 -0.355077 2.292712 0.000000 0.000000 0.000000 -20.145355 -60.459071 -25.700971 15.551816 -24.727889 3.553591 1.220247 -83.251766 12.438891 0.000000 0.000000 0.000000 -7.125000 0.000000 0.000000 -17.730061 17.715403 -12.423120 0.000000 0.000000 0.000000 13.110281 -55.974360 34.254117 -18.807275 -29.146323 -4.952223 -24.250445 32.159716 -26.341406 0.000000 0.000000 0.000000 7.125000 0.000000 0.000000 3.562812 1.496782 3.385062
